<?xml version="1.0" standalone="no"?>
<!DOCTYPE svg PUBLIC "-//W3C//DTD SVG 20010904//EN"
 "http://www.w3.org/TR/2001/REC-SVG-20010904/DTD/svg10.dtd">
<svg version="1.0" xmlns="http://www.w3.org/2000/svg"
 width="300.000000pt" height="300.000000pt" viewBox="0 0 300.000000 300.000000"
 preserveAspectRatio="xMidYMid meet">
<metadata>
Created by potrace 1.11, written by Peter Selinger 2001-2013
</metadata>
<g transform="translate(0.000000,300.000000) scale(0.100000,-0.100000)"
fill="#000000" stroke="none">
<path d="M1297 1733 l-48 -4 5 -131 c3 -71 6 -131 8 -133 2 -1 40 -5 86 -8 81
-5 82 -5 82 19 0 23 -3 24 -71 24 l-70 0 3 38 3 37 53 3 c44 3 52 6 52 23 0
16 -7 19 -50 19 -47 0 -50 2 -50 25 0 14 -1 28 -2 33 -2 4 26 12 62 17 46 8
65 15 65 25 0 16 -40 20 -128 13z"/>
<path d="M1490 1733 c0 -5 -7 -55 -15 -113 -20 -145 -19 -160 5 -160 20 0 21
2 37 125 l8 60 33 -57 c18 -32 37 -58 43 -58 5 0 23 27 38 60 l29 61 11 -64
c6 -35 11 -78 11 -95 0 -26 4 -32 21 -32 21 0 22 3 15 78 -4 42 -12 105 -17
140 -14 82 -33 82 -78 0 -30 -55 -36 -60 -45 -44 -49 81 -68 106 -81 106 -8 0
-15 -3 -15 -7z m126 -149 c-4 -9 -9 -15 -11 -12 -3 3 -3 13 1 22 4 9 9 15 11
12 3 -3 3 -13 -1 -22z"/>
<path d="M1861 1727 c-48 -17 -73 -56 -79 -119 -8 -103 36 -148 144 -148 85 0
109 25 116 125 4 53 -4 78 -34 109 -38 40 -93 52 -147 33z m108 -56 c11 -11
23 -40 26 -64 12 -81 -12 -117 -80 -117 -57 0 -95 41 -95 102 0 79 98 130 149
79z m51 -16 c0 -8 -2 -15 -4 -15 -2 0 -6 7 -10 15 -3 8 -1 15 4 15 6 0 10 -7
10 -15z m7 -97 c-3 -8 -6 -5 -6 6 -1 11 2 17 5 13 3 -3 4 -12 1 -19z"/>
<path d="M980 1594 l0 -136 78 7 c42 3 89 11 103 16 52 20 76 127 44 189 -23
44 -63 60 -150 60 l-75 0 0 -136z m148 86 c40 -25 56 -62 45 -110 -10 -42 -57
-70 -115 -70 l-38 0 0 93 c0 52 3 97 7 100 13 14 69 6 101 -13z m61 -24 c-2
-2 -13 8 -23 22 l-19 27 24 -22 c12 -12 21 -24 18 -27z m-192 -103 c-3 -10 -5
-4 -5 12 0 17 2 24 5 18 2 -7 2 -21 0 -30z m6 -53 c3 -11 1 -18 -4 -14 -5 3
-9 12 -9 20 0 20 7 17 13 -6z"/>
<path d="M650 1396 c-28 -35 11 -93 48 -70 35 22 22 84 -18 84 -10 0 -23 -7
-30 -14z m55 -31 c0 -23 -5 -30 -19 -30 -28 0 -43 29 -26 50 21 25 45 14 45
-20z"/>
<path d="M754 1397 c-11 -31 0 -72 21 -75 35 -4 47 11 38 49 -10 37 -48 53
-59 26z m46 -12 c0 -8 -7 -15 -15 -15 -8 0 -15 7 -15 15 0 8 7 15 15 15 8 0
15 -7 15 -15z m3 -40 c1 -5 -6 -11 -15 -13 -11 -2 -18 3 -18 13 0 17 30 18 33
0z"/>
<path d="M880 1369 c0 -37 -2 -40 -22 -34 -18 6 -20 5 -11 -5 22 -23 43 -3 43
40 0 22 -2 40 -5 40 -3 0 -5 -18 -5 -41z"/>
<path d="M930 1365 c0 -44 0 -45 33 -44 30 2 30 2 5 6 -34 5 -37 30 -5 36 l22
4 -22 2 c-13 0 -23 7 -23 15 0 8 10 17 23 19 19 4 18 4 -5 6 -27 1 -28 -1 -28
-44z"/>
<path d="M1034 1402 c-17 -11 -22 -35 -13 -59 6 -17 16 -23 36 -22 l28 1 -25
7 c-35 10 -41 57 -8 70 13 6 16 10 8 10 -8 0 -20 -3 -26 -7z"/>
<path d="M1118 1403 c6 -2 12 -20 12 -38 0 -19 5 -37 10 -40 6 -4 10 10 10 34
0 22 5 42 13 44 6 3 -4 5 -23 5 -19 0 -29 -2 -22 -5z"/>
<path d="M1250 1365 c0 -40 2 -45 23 -45 29 0 47 18 47 47 0 23 -26 43 -54 43
-12 0 -16 -11 -16 -45z m50 20 c16 -19 3 -55 -21 -55 -15 0 -19 7 -19 35 0 37
18 47 40 20z"/>
<path d="M1354 1396 c-3 -8 -4 -27 -2 -43 2 -23 8 -28 33 -30 20 -1 23 0 8 4
-13 2 -23 11 -23 18 0 7 10 16 23 18 l22 4 -22 2 c-13 0 -23 7 -23 15 0 8 10
17 23 19 19 4 18 4 -6 6 -16 0 -30 -5 -33 -13z"/>
<path d="M1442 1403 c12 -3 18 -17 21 -46 l4 -42 1 42 c2 30 7 43 20 46 9 3
-1 5 -23 5 -22 0 -32 -2 -23 -5z"/>
<path d="M1530 1365 c0 -43 1 -45 28 -44 23 2 24 2 5 6 -13 2 -23 11 -23 18 0
7 10 16 23 18 l22 4 -22 2 c-13 0 -23 7 -23 15 0 8 10 17 23 19 19 4 18 4 -5
6 -27 1 -28 -1 -28 -44z"/>
<path d="M1619 1389 c-16 -30 3 -69 33 -68 15 0 18 3 8 6 -41 15 -45 57 -6 73
21 9 21 9 -1 9 -13 1 -27 -8 -34 -20z"/>
<path d="M1717 1402 c6 -4 13 -25 16 -47 l4 -40 1 42 c2 30 7 43 20 46 9 3 1
5 -18 6 -19 0 -30 -3 -23 -7z"/>
<path d="M1803 1365 c0 -27 2 -38 4 -22 2 15 2 37 0 50 -2 12 -4 0 -4 -28z"/>
<path d="M1849 1389 c-16 -32 3 -69 36 -69 39 0 54 59 21 82 -20 14 -45 8 -57
-13z m56 -24 c0 -23 -4 -30 -20 -30 -21 0 -31 25 -21 51 11 28 41 12 41 -21z"/>
<path d="M1961 1365 l1 -50 8 40 c5 22 4 44 -1 50 -5 5 -9 -11 -8 -40z"/>
<path d="M2022 1383 c-2 -37 -9 -41 -28 -15 -7 9 -13 13 -13 7 -1 -15 37 -60
44 -53 3 3 5 26 2 49 -3 35 -4 37 -5 12z"/>
<path d="M2122 1383 c-5 -16 -13 -36 -17 -46 -7 -17 -6 -18 14 -6 17 12 25 12
42 0 20 -12 21 -11 14 6 -4 10 -12 30 -17 46 -5 15 -14 27 -18 27 -4 0 -13
-12 -18 -27z m24 -30 c-11 -11 -19 6 -11 24 8 17 8 17 12 0 3 -10 2 -21 -1
-24z"/>
<path d="M2211 1363 c1 -26 4 -38 6 -26 3 13 13 23 26 25 34 5 29 42 -5 46
-27 3 -28 2 -27 -45z m42 22 c1 -5 -6 -11 -15 -13 -11 -2 -18 3 -18 13 0 17
30 18 33 0z"/>
<path d="M2301 1363 c1 -26 4 -38 6 -26 3 13 13 23 26 25 34 5 29 42 -5 46
-27 3 -28 2 -27 -45z m42 22 c1 -5 -6 -11 -15 -13 -11 -2 -18 3 -18 13 0 17
30 18 33 0z"/>
</g>
</svg>
